# PolyCAD Example: Simple car silhouette

o Body
# PolyCADData: color 0.850000 0.200000 0.200000
# PolyCADData: pos 0.000000 0.500000 0.000000
# PolyCADData: rot 0.000000 0.000000 0.000000
# PolyCADData: scale 1.000000 1.000000 1.000000
v -2.000000 -0.400000 -1.000000
v 2.000000 -0.400000 -1.000000
v 2.000000 0.400000 -1.000000
v -2.000000 0.400000 -1.000000
v -2.000000 -0.400000 1.000000
v 2.000000 -0.400000 1.000000
v 2.000000 0.400000 1.000000
v -2.000000 0.400000 1.000000
f 1 3 2
f 1 4 3
f 5 6 7
f 5 7 8
f 1 5 8
f 1 8 4
f 2 3 7
f 2 7 6
f 1 2 6
f 1 6 5
f 4 8 7
f 4 7 3

o Cabin
# PolyCADData: color 0.950000 0.850000 0.600000
# PolyCADData: pos 0.000000 1.400000 0.000000
# PolyCADData: rot 0.000000 0.000000 0.000000
# PolyCADData: scale 1.000000 1.000000 1.000000
v -1.100000 -0.500000 -0.900000
v 1.100000 -0.500000 -0.900000
v 1.100000 0.500000 -0.900000
v -1.100000 0.500000 -0.900000
v -1.100000 -0.500000 0.900000
v 1.100000 -0.500000 0.900000
v 1.100000 0.500000 0.900000
v -1.100000 0.500000 0.900000
f 9 11 10
f 9 12 11
f 13 14 15
f 13 15 16
f 9 13 16
f 9 16 12
f 10 11 15
f 10 15 14
f 9 10 14
f 9 14 13
f 12 16 15
f 12 15 11

o Wheel_FL
# PolyCADData: color 0.120000 0.120000 0.150000
# PolyCADData: pos -1.400000 0.300000 -0.800000
# PolyCADData: rot 0.000000 0.000000 0.000000
# PolyCADData: scale 1.000000 1.000000 1.000000
v -0.300000 -0.300000 -0.250000
v 0.300000 -0.300000 -0.250000
v 0.300000 0.300000 -0.250000
v -0.300000 0.300000 -0.250000
v -0.300000 -0.300000 0.250000
v 0.300000 -0.300000 0.250000
v 0.300000 0.300000 0.250000
v -0.300000 0.300000 0.250000
f 17 19 18
f 17 20 19
f 21 22 23
f 21 23 24
f 17 21 24
f 17 24 20
f 18 19 23
f 18 23 22
f 17 18 22
f 17 22 21
f 20 24 23
f 20 23 19

o Wheel_FR
# PolyCADData: color 0.120000 0.120000 0.150000
# PolyCADData: pos 1.400000 0.300000 -0.800000
# PolyCADData: rot 0.000000 0.000000 0.000000
# PolyCADData: scale 1.000000 1.000000 1.000000
v -0.300000 -0.300000 -0.250000
v 0.300000 -0.300000 -0.250000
v 0.300000 0.300000 -0.250000
v -0.300000 0.300000 -0.250000
v -0.300000 -0.300000 0.250000
v 0.300000 -0.300000 0.250000
v 0.300000 0.300000 0.250000
v -0.300000 0.300000 0.250000
f 25 27 26
f 25 28 27
f 29 30 31
f 29 31 32
f 25 29 32
f 25 32 28
f 26 27 31
f 26 31 30
f 25 26 30
f 25 30 29
f 28 32 31
f 28 31 27

o Wheel_RL
# PolyCADData: color 0.120000 0.120000 0.150000
# PolyCADData: pos -1.400000 0.300000 0.800000
# PolyCADData: rot 0.000000 0.000000 0.000000
# PolyCADData: scale 1.000000 1.000000 1.000000
v -0.300000 -0.300000 -0.250000
v 0.300000 -0.300000 -0.250000
v 0.300000 0.300000 -0.250000
v -0.300000 0.300000 -0.250000
v -0.300000 -0.300000 0.250000
v 0.300000 -0.300000 0.250000
v 0.300000 0.300000 0.250000
v -0.300000 0.300000 0.250000
f 33 35 34
f 33 36 35
f 37 38 39
f 37 39 40
f 33 37 40
f 33 40 36
f 34 35 39
f 34 39 38
f 33 34 38
f 33 38 37
f 36 40 39
f 36 39 35

o Wheel_RR
# PolyCADData: color 0.120000 0.120000 0.150000
# PolyCADData: pos 1.400000 0.300000 0.800000
# PolyCADData: rot 0.000000 0.000000 0.000000
# PolyCADData: scale 1.000000 1.000000 1.000000
v -0.300000 -0.300000 -0.250000
v 0.300000 -0.300000 -0.250000
v 0.300000 0.300000 -0.250000
v -0.300000 0.300000 -0.250000
v -0.300000 -0.300000 0.250000
v 0.300000 -0.300000 0.250000
v 0.300000 0.300000 0.250000
v -0.300000 0.300000 0.250000
f 41 43 42
f 41 44 43
f 45 46 47
f 45 47 48
f 41 45 48
f 41 48 44
f 42 43 47
f 42 47 46
f 41 42 46
f 41 46 45
f 44 48 47
f 44 47 43
